#include "pitches.h"

const int ritmo = 2000;

const int toreadorMelody[] = {
  NOTE_C5, NOTE_D5, NOTE_C5, 
  NOTE_A4, NOTE_A4, NOTE_A4, 
  NOTE_G4, NOTE_A4, NOTE_AS4, NOTE_A4, 
  NOTE_AS4, NOTE_G4, NOTE_C5, NOTE_A4,
  NOTE_F4, NOTE_D4, NOTE_G4, NOTE_C4,

  NOTE_G4, 
  NOTE_G4, NOTE_D5, NOTE_C5, NOTE_AS4,
  NOTE_A4, NOTE_G4, NOTE_A4, NOTE_AS4, NOTE_A4,
  NOTE_E4, NOTE_A4, NOTE_A4, NOTE_GS4, NOTE_B4, NOTE_E5,

  NOTE_D5, NOTE_F5, NOTE_D5, NOTE_CS5, NOTE_D5,
  NOTE_G4, NOTE_A4, NOTE_AS4,

  NOTE_A4, NOTE_AS4, NOTE_A4, NOTE_F4, NOTE_D5, NOTE_C5,
  NOTE_A5, NOTE_AS5, NOTE_A5, NOTE_F5, NOTE_D6, NOTE_C6,
  NOTE_AS4, NOTE_A4, NOTE_G4,

  NOTE_F4, NOTE_G4, NOTE_A4, NOTE_AS4, NOTE_C5,
  NOTE_D5, NOTE_E5, NOTE_F5, NOTE_G5, NOTE_A5, 
  
  NOTE_AS5, NOTE_B5, NOTE_C6,

  NOTE_CS6, NOTE_DS6, NOTE_CS6, 
  NOTE_AS5, NOTE_AS5, NOTE_AS5, 
  NOTE_GS5, NOTE_AS5, NOTE_B5, NOTE_AS5, 
  NOTE_B5, NOTE_GS5, NOTE_CS6, NOTE_AS5,
  NOTE_FS5, NOTE_DS5, NOTE_GS5, NOTE_CS5,

  NOTE_GS5, 
  NOTE_GS5, NOTE_DS6, NOTE_CS6, NOTE_B5,
  NOTE_AS5, NOTE_GS5, NOTE_AS5, NOTE_B5, NOTE_AS5,
  NOTE_F5, NOTE_AS5, NOTE_AS5, NOTE_A5, NOTE_C6, NOTE_F6,
};

const int noteDurations[] = {
  4, 8, 16,
  4, 4, 8,
  16, 8, 16, 2,
  4, 8, 16, 2,
  4, 8, 16, 2,

  2,
  8, 8, 8, 8,
  8, 8, 8, 8, 2,
  4, 4, 4, 8, 8, 1,

  32, 32, 32, 32, 8,
  8, 8, 2,
  
  8, 8, 16, 4,
  8, 8, 16, 4,
  4, 4, 4, 

  16, 16, 16, 16, 16,
  16, 16, 16, 16, 16,

  32, 32, 32,

  4, 8, 16,
  4, 4, 8,
  16, 8, 16, 2,
  4, 8, 16, 2,
  4, 8, 16, 2,

  2,
  8, 8, 8, 8,
  8, 8, 8, 8, 2,
  4, 4, 4, 8, 8, 1,
};